HIERARCHY
ROOT Hips
{
	OFFSET 0.00000 0.00000 0.00000
	CHANNELS 6 Xposition Yposition Zposition Zrotation Yrotation Xrotation 
	JOINT LHipJoint
	{
		OFFSET 0 0 0
		CHANNELS 3 Zrotation Yrotation Xrotation
		JOINT LeftHip
		{
			OFFSET 1.37590 -1.78394 0.89329
			CHANNELS 3 Zrotation Yrotation Xrotation
			JOINT LeftKnee
			{
				OFFSET 2.47928 -6.81178 0.00000
				CHANNELS 3 Zrotation Yrotation Xrotation
				JOINT LeftAnkle
				{
					OFFSET 2.63345 -7.23535 0.00000
					CHANNELS 3 Zrotation Yrotation Xrotation
					JOINT LeftToe
					{
						OFFSET 0.23938 -0.65768 2.27012
						CHANNELS 3 Zrotation Yrotation Xrotation
						End Site
						{
							OFFSET 0.00000 -0.00000 1.18363
						}
					}
				}
			}
		}
	}
	JOINT RHipJoint
	{
		OFFSET 0 0 0
		CHANNELS 3 Zrotation Yrotation Xrotation
		JOINT RightHip
		{
			OFFSET -1.33617 -1.78394 0.89329
			CHANNELS 3 Zrotation Yrotation Xrotation
			JOINT RightKnee
			{
				OFFSET -2.56922 -7.05888 0.00000
				CHANNELS 3 Zrotation Yrotation Xrotation
				JOINT RightAnkle
				{
					OFFSET -2.56568 -7.04915 0.00000
					CHANNELS 3 Zrotation Yrotation Xrotation
					JOINT RightToe
					{
						OFFSET -0.27533 -0.75646 2.18105
						CHANNELS 3 Zrotation Yrotation Xrotation
						End Site
						{
							OFFSET -0.00000 -0.00000 1.15233
						}
					}
				}
			}
		}
	}
	JOINT lowerback
	{
		OFFSET 0 0 0
		CHANNELS 3 Zrotation Yrotation Xrotation
		JOINT Chest
		{
			OFFSET 0.06190 2.15152 -0.00935
			CHANNELS 3 Zrotation Yrotation Xrotation
			JOINT Chest2
			{
				OFFSET 0.06334 2.15332 0.00872
				CHANNELS 3 Zrotation Yrotation Xrotation
				JOINT lowerneck
				{
					OFFSET 0 0 0
					CHANNELS 3 Zrotation Yrotation Xrotation
					JOINT Neck
					{
						OFFSET -0.04202 1.66908 0.23524
						CHANNELS 3 Zrotation Yrotation Xrotation
						JOINT Head
						{
							OFFSET 0.07510 1.69357 -0.24440
							CHANNELS 3 Zrotation Yrotation Xrotation
							End Site
							{
								OFFSET 0.02556 1.71719 -0.11000
							}
						}
					}
				}
				JOINT LeftCollar
				{
					OFFSET 0 0 0
					CHANNELS 3 Zrotation Yrotation Xrotation
					JOINT LeftShoulder
					{
						OFFSET 3.67168 1.26306 -0.41342
CHANNELS 3 Zrotation Xrotation Yrotation
						JOINT LeftElbow
						{
OFFSET 0 -4.685100 -0.000000
CHANNELS 3 Zrotation Xrotation Yrotation
							JOINT LeftWrist
							{
OFFSET 0 -3.396260 -0.000000
CHANNELS 3 Zrotation Xrotation Yrotation
								JOINT lhand
								{
									OFFSET 0 0 0
CHANNELS 3 Zrotation Xrotation Yrotation
									JOINT LFingers
									{
OFFSET 0 -0.486080 -0.000000
CHANNELS 3 Zrotation Xrotation Yrotation
										End Site
										{
OFFSET 0 -0.391890 -0.000000
										}
									}
								}
								JOINT LThumb
								{
OFFSET 0 0.000000 0.000000
CHANNELS 3 Zrotation Xrotation Yrotation
									End Site
									{
OFFSET 0 -0.397870 0.397870
									}
								}
							}
						}
					}
				}
				JOINT RightCollar
				{
					OFFSET 0 0 0
					CHANNELS 3 Zrotation Yrotation Xrotation
					JOINT RightShoulder
					{
						OFFSET -3.04136 1.42992 -0.76390
CHANNELS 3 Zrotation Xrotation Yrotation
						JOINT RightElbow
						{
OFFSET 0 -5.555760 -0.000000
CHANNELS 3 Zrotation Xrotation Yrotation
							JOINT RightWrist
							{
OFFSET 0 -3.327740 -0.000000
CHANNELS 3 Zrotation Xrotation Yrotation
								JOINT rhand
								{
									OFFSET 0 0 0
CHANNELS 3 Zrotation Xrotation Yrotation
									JOINT RFingers
									{
OFFSET 0 -0.507630 -0.000000
CHANNELS 3 Zrotation Xrotation Yrotation
										End Site
										{
OFFSET 0 -0.409260 -0.000000
										}
									}
								}
								JOINT RThumb
								{
OFFSET 0 0.000000 0.000000
CHANNELS 3 Zrotation Xrotation Yrotation
									End Site
									{
OFFSET 0 -0.415510 0.415510
									}
								}
							}
						}
					}
				}
			}
		}
	}
}
MOTION
Frames: 11
Frame Time: 0.008333333333333333
1.602656 17.838972 3.804861 -462.141247 -79.051353 462.959987 0.000000 0.000000 0.000000 0.702355 -5.805925 -45.775383 14.346976 19.209823 73.256534 39.771998 0.334670 -170.831861 0.000000 0.032331 0.088793 0.000000 0.000000 0.000000 35.899385 8.738573 -10.814132 -1.892913 -8.638530 24.671557 -0.241410 -0.810443 -9.611268 -1.148716 -6.805167 19.139504 7.964421 0.057073 2.593924 4.748930 0.330983 -1.132467 0.441280 0.005814 -2.612583 -6.027814 -4.218580 -18.047486 6.142942 -5.264344 13.243407 2.383233 -2.270174 7.350327 0.000000 0.000000 0.000000 3.523512 6.989565 -4.198403 12.140226 -20.013931 2.150441 12.499128 34.065746 -14.498092 0.000000 0.000000 0.000000 -7.125000 0.000000 0.000000 -13.809895 44.365011 -0.221627 0.000000 0.000000 0.000000 -4.985235 -17.429680 48.129979 -61.996900 -56.816751 -36.008035 -14.930049 -1.890223 11.531652 0.000000 0.000000 0.000000 7.125000 0.000000 0.000000 10.902925 41.651165 0.912556
1.518211 17.859533 3.797729 -463.177270 -78.955556 463.804092 0.000000 0.000000 0.000000 0.925896 -6.036645 -48.079721 13.644255 19.000703 71.113364 39.789514 1.230566 -170.790159 0.000009 0.041527 0.114053 0.000000 0.000000 0.000000 36.154182 8.741367 -9.905512 -1.815962 -8.471411 24.155582 -0.242337 -0.979555 -9.707424 -1.121458 -6.726840 18.908579 8.086262 0.189113 2.806407 4.690555 0.530384 -1.052026 0.303533 0.103907 -2.637504 -6.040548 -4.257058 -18.015639 6.199159 -5.325539 13.237816 2.396689 -2.295695 7.349094 0.000000 0.000000 0.000000 3.991837 7.457568 -2.893416 11.863310 -19.599190 2.056291 12.100969 34.203610 -14.291467 0.000000 0.000000 0.000000 -7.125000 0.000000 0.000000 -14.105176 44.116374 -0.314622 0.000000 0.000000 0.000000 -4.896494 -18.965331 48.573494 -62.950510 -57.045504 -36.806883 -15.017053 -1.953680 11.392791 0.000000 0.000000 0.000000 7.125000 0.000000 0.000000 10.796226 41.518865 0.939201
1.432685 17.878822 3.791615 -464.265451 -78.818860 464.676820 0.000000 0.000000 0.000000 1.184293 -6.247075 -50.320135 12.997825 18.777972 69.115407 39.807856 1.879544 -170.800932 0.000082 0.048879 0.134288 0.000000 0.000000 0.000000 36.452103 8.751412 -8.963053 -1.741937 -8.305818 23.647304 -0.242628 -1.154392 -9.799574 -1.094963 -6.649466 18.680898 8.252437 0.323189 3.037145 4.640259 0.735573 -0.963443 0.148422 0.203845 -2.662106 -6.056779 -4.296364 -17.996132 6.253532 -5.386099 13.236361 2.410082 -2.321026 7.351423 0.000000 0.000000 0.000000 4.478861 7.977347 -1.866960 11.646184 -19.271717 1.984086 11.647281 34.080817 -13.989179 0.000000 0.000000 0.000000 -7.125000 0.000000 0.000000 -14.420494 43.768957 -0.448771 0.000000 0.000000 0.000000 -4.818756 -20.450351 48.968223 -63.859851 -57.252441 -37.570939 -15.045222 -2.068467 11.233386 0.000000 0.000000 0.000000 7.125000 0.000000 0.000000 10.736976 41.360042 0.976469
1.346338 17.897070 3.786267 -465.367868 -78.654238 465.551738 0.000000 0.000000 0.000000 1.466839 -6.445787 -52.510172 12.397884 18.548889 67.239286 39.824775 2.362605 -170.851458 0.000155 0.068168 0.187268 0.000000 0.000000 0.000000 36.775706 8.768739 -8.007179 -1.671142 -8.143675 23.151784 -0.242590 -1.331747 -9.889095 -1.069892 -6.575268 18.462964 8.447908 0.458085 3.277356 4.595931 0.943993 -0.871738 -0.017695 0.304823 -2.686544 -6.071752 -4.336819 -17.986098 6.301333 -5.446932 13.236329 2.420957 -2.346794 7.355614 0.000000 0.000000 0.000000 4.977275 8.541809 -1.098194 11.477244 -19.015867 1.928691 11.193758 33.777815 -13.651790 0.000000 0.000000 0.000000 -7.125000 0.000000 0.000000 -14.724038 43.389178 -0.600606 0.000000 0.000000 0.000000 -4.751696 -21.890360 49.320570 -64.723030 -57.440704 -38.297759 -15.028983 -2.208223 11.063686 0.000000 0.000000 0.000000 7.125000 0.000000 0.000000 10.714634 41.186817 1.020800
1.259390 17.914453 3.781447 -466.444397 -78.475021 466.398730 0.000000 0.000000 0.000000 1.764938 -6.646067 -54.664284 11.835729 18.316943 65.463277 39.840454 2.732362 -170.933558 0.000228 0.090203 0.247780 0.000000 0.000000 0.000000 37.110850 8.790724 -7.052424 -1.603449 -7.985423 22.670024 -0.242445 -1.510318 -9.980258 -1.046860 -6.506386 18.260966 8.658175 0.591077 3.518400 4.555744 1.150970 -0.780769 -0.188236 0.404712 -2.710597 -6.085125 -4.377681 -17.978797 6.343060 -5.507305 13.234314 2.429569 -2.372761 7.359371 0.000000 0.000000 0.000000 5.482497 9.142166 -0.533773 11.344279 -18.813929 1.885525 10.770286 33.362203 -13.284169 0.000000 0.000000 0.000000 -7.125000 0.000000 0.000000 -14.991560 42.984585 -0.764958 0.000000 0.000000 0.000000 -4.694956 -23.291336 49.639293 -65.544951 -57.613840 -38.991053 -14.980849 -2.363748 10.871644 0.000000 0.000000 0.000000 7.125000 0.000000 0.000000 10.715600 40.988136 1.074151
1.171893 17.930970 3.777083 -467.470467 -78.286930 467.198486 0.000000 0.000000 0.000000 2.075544 -6.855305 -56.786351 11.310779 18.083761 63.786612 39.854854 3.005240 -171.046131 0.000301 0.110314 0.303013 0.000000 0.000000 0.000000 37.450998 8.816399 -6.106904 -1.539133 -7.831743 22.204119 -0.242302 -1.689437 -10.075563 -1.026420 -6.444556 18.079985 8.876909 0.720470 3.755625 4.519142 1.353797 -0.692719 -0.360083 0.502231 -2.734087 -6.096536 -4.418588 -17.970882 6.378305 -5.566764 13.228247 2.435808 -2.398820 7.361402 0.000000 0.000000 0.000000 5.992735 9.777476 -0.166766 11.244535 -18.662095 1.853415 10.396451 32.858918 -12.885925 0.000000 0.000000 0.000000 -7.125000 0.000000 0.000000 -15.205978 42.556836 -0.940273 0.000000 0.000000 0.000000 -4.649494 -24.652266 49.925494 -66.323725 -57.772122 -39.649131 -14.904207 -2.531618 10.648362 0.000000 0.000000 0.000000 7.125000 0.000000 0.000000 10.734990 40.755306 1.138542
1.083238 17.946256 3.773444 -468.444371 -78.097318 467.958392 0.000000 0.000000 0.000000 2.390352 -7.074470 -58.846761 10.848430 17.857318 62.284923 39.866573 3.166465 -171.183627 0.000446 0.135061 0.371142 0.000000 0.000000 0.000000 37.777525 8.838090 -5.192104 -1.480976 -7.688569 21.772268 -0.242812 -1.850153 -10.176447 -1.009024 -6.391275 17.924073 9.096801 0.844719 3.979011 4.484713 1.549378 -0.609741 -0.530771 0.596127 -2.753085 -6.104324 -4.459568 -17.966951 6.401087 -5.624413 13.216747 2.437482 -2.424878 7.361766 0.000000 0.000000 0.000000 6.501814 10.448072 -0.050305 11.186668 -18.573803 1.834927 10.102388 32.317885 -12.499057 0.000000 0.000000 0.000000 -7.125000 0.000000 0.000000 -15.353811 42.150387 -1.108704 0.000000 0.000000 0.000000 -4.626420 -25.952915 50.164093 -67.026711 -57.907799 -40.244391 -14.796699 -2.688112 10.400374 0.000000 0.000000 0.000000 7.125000 0.000000 0.000000 10.776479 40.494943 1.213150
0.993847 17.960715 3.770355 -469.367314 -77.914867 468.679275 0.000000 0.000000 0.000000 2.705619 -7.309978 -60.873656 10.423819 17.638587 60.892132 39.877098 3.287886 -171.328653 0.000500 0.146404 0.402314 0.000000 0.000000 0.000000 38.083668 8.848625 -4.309671 -1.426674 -7.552282 21.362545 -0.243689 -1.991816 -10.275357 -0.992316 -6.339693 17.773349 9.310174 0.964744 4.189864 4.450147 1.738716 -0.534522 -0.697969 0.686902 -2.772220 -6.111056 -4.500410 -17.957466 6.418315 -5.681096 13.200196 2.437365 -2.451073 7.359237 0.000000 0.000000 0.000000 7.006211 11.137077 -0.059270 11.151297 -18.519760 1.823647 9.861075 31.796180 -12.143867 0.000000 0.000000 0.000000 -7.125000 0.000000 0.000000 -15.464961 41.780805 -1.261939 0.000000 0.000000 0.000000 -4.623455 -27.216238 50.377167 -67.669877 -58.028555 -40.789609 -14.686758 -2.830695 10.142974 0.000000 0.000000 0.000000 7.125000 0.000000 0.000000 10.818474 40.225261 1.290879
0.903690 17.974428 3.767758 -470.235367 -77.741676 469.358427 0.000000 0.000000 0.000000 3.021566 -7.563096 -62.866570 10.036166 17.428841 59.607522 39.886307 3.378208 -171.471038 0.000500 0.148140 0.407007 0.000000 0.000000 0.000000 38.366639 8.844495 -3.461352 -1.375996 -7.422719 20.974192 -0.245042 -2.111892 -10.371933 -0.975899 -6.288600 17.624204 9.515001 1.080371 4.385937 4.415257 1.921070 -0.465939 -0.860639 0.774334 -2.789305 -6.115880 -4.541451 -17.945083 6.429411 -5.737291 13.179044 2.435023 -2.477574 7.354417 0.000000 0.000000 0.000000 7.503920 11.838301 -0.172704 11.135828 -18.496089 1.818737 9.669978 31.309967 -11.819376 0.000000 0.000000 0.000000 -7.125000 0.000000 0.000000 -15.541454 41.446623 -1.400014 0.000000 0.000000 0.000000 -4.642060 -28.446099 50.565928 -68.249768 -58.134424 -41.281728 -14.580871 -2.958647 9.883410 0.000000 0.000000 0.000000 7.125000 0.000000 0.000000 10.856856 39.954011 1.369034
0.812560 17.987384 3.765647 -471.030940 -77.583144 469.982948 0.000000 0.000000 0.000000 3.338704 -7.839472 -64.817943 9.691515 17.232022 58.451431 39.893732 3.445973 -171.593030 0.000500 0.144792 0.397690 0.000000 0.000000 0.000000 38.617103 8.816835 -2.656899 -1.329266 -7.300944 20.610179 -0.247153 -2.201785 -10.465102 -0.959158 -6.236047 17.470839 9.706142 1.190427 4.560483 4.379663 2.093796 -0.403414 -1.016114 0.857385 -2.800223 -6.116972 -4.583304 -17.933728 6.432176 -5.793702 13.153131 2.429273 -2.504724 7.347866 0.000000 0.000000 0.000000 7.990217 12.543689 -0.375928 11.139832 -18.502276 1.820047 9.534811 30.893693 -11.530044 0.000000 0.000000 0.000000 -7.125000 0.000000 0.000000 -15.579813 41.152414 -1.519969 0.000000 0.000000 0.000000 -4.689008 -29.642369 50.727590 -68.747929 -58.222498 -41.704990 -14.490832 -3.067829 9.633529 0.000000 0.000000 0.000000 7.125000 0.000000 0.000000 10.883933 39.694013 1.443133
0.720144 17.999377 3.764115 -471.728816 -77.443572 470.529055 0.000000 0.000000 0.000000 3.664068 -8.146056 -66.718154 9.395197 17.053907 57.444905 39.898971 3.503969 -171.671510 0.000500 0.142022 0.390173 0.000000 0.000000 0.000000 38.826238 8.750547 -1.908750 -1.286714 -7.187461 20.272069 -0.249778 -2.251186 -10.543680 -0.939846 -6.174625 17.291958 9.880058 1.292191 4.709319 4.344134 2.252574 -0.350401 -1.161048 0.933816 -2.806770 -6.119350 -4.625672 -17.917938 6.430957 -5.849791 13.124005 2.422558 -2.532195 7.339387 0.000000 0.000000 0.000000 8.456781 13.252869 -0.644712 11.167166 -18.544007 1.828748 9.422846 30.546448 -11.294380 0.000000 0.000000 0.000000 -7.125000 0.000000 0.000000 -15.613159 40.912902 -1.618327 0.000000 0.000000 0.000000 -4.769379 -30.796926 50.863735 -69.138303 -58.289618 -42.036983 -14.422646 -3.157536 9.418999 0.000000 0.000000 0.000000 7.125000 0.000000 0.000000 10.899762 39.471807 1.505790
